<?xml version="1.0" encoding="UTF-8" standalone="no"?>
<!-- Created with Inkscape (http://www.inkscape.org/) -->

<svg
   xmlns:dc="http://purl.org/dc/elements/1.1/"
   xmlns:cc="http://creativecommons.org/ns#"
   xmlns:rdf="http://www.w3.org/1999/02/22-rdf-syntax-ns#"
   xmlns:svg="http://www.w3.org/2000/svg"
   xmlns="http://www.w3.org/2000/svg"
   xmlns:sodipodi="http://sodipodi.sourceforge.net/DTD/sodipodi-0.dtd"
   xmlns:inkscape="http://www.inkscape.org/namespaces/inkscape"
   version="1.1"
   id="svg71874"
   xml:space="preserve"
   width="666.66669"
   height="666.66669"
   viewBox="0 0 666.66669 666.66669"
   sodipodi:docname="photography-clipart-publicdomainvectors.org.svg"
   inkscape:version="0.92.4 (5da689c313, 2019-01-14)"><metadata
     id="metadata71880"><rdf:RDF><cc:Work
         rdf:about=""><dc:format>image/svg+xml</dc:format><dc:type
           rdf:resource="http://purl.org/dc/dcmitype/StillImage" /><dc:title></dc:title></cc:Work></rdf:RDF></metadata><defs
     id="defs71878"><clipPath
       clipPathUnits="userSpaceOnUse"
       id="clipPath71890"><path
         d="M 0,500 H 500 V 0 H 0 Z"
         id="path71888"
         inkscape:connector-curvature="0" /></clipPath><clipPath
       clipPathUnits="userSpaceOnUse"
       id="clipPath71912"><path
         d="M 215.12,353.964 H 336.912 V 232.172 H 215.12 Z"
         id="path71910"
         inkscape:connector-curvature="0" /></clipPath><clipPath
       clipPathUnits="userSpaceOnUse"
       id="clipPath71958"><path
         d="M 117.493,376.23 H 233.569 V 216.312 H 117.493 Z"
         id="path71956"
         inkscape:connector-curvature="0" /></clipPath></defs><sodipodi:namedview
     pagecolor="#ffffff"
     bordercolor="#666666"
     borderopacity="1"
     objecttolerance="10"
     gridtolerance="10"
     guidetolerance="10"
     inkscape:pageopacity="0"
     inkscape:pageshadow="2"
     inkscape:window-width="797"
     inkscape:window-height="480"
     id="namedview71876"
     showgrid="false"
     inkscape:zoom="0.35399999"
     inkscape:cx="333.33334"
     inkscape:cy="333.33334"
     inkscape:window-x="0"
     inkscape:window-y="0"
     inkscape:window-maximized="0"
     inkscape:current-layer="g71882" /><g
     id="g71882"
     inkscape:groupmode="layer"
     inkscape:label="photography-clipart-publicdomainvectors.org"
     transform="matrix(1.3333333,0,0,-1.3333333,0,666.66667)"><g
       id="g71884"><g
         id="g71886"
         clip-path="url(#clipPath71890)"><path
           d="M 500,0 H 0 v 500 h 500 z"
           style="fill:#f3ba0c;fill-opacity:1;fill-rule:nonzero;stroke:none"
           id="path71892"
           inkscape:connector-curvature="0" /><path
           d="M 449.806,250 C 449.806,139.65 360.35,50.194 250,50.194 139.65,50.194 50.194,139.65 50.194,250 50.194,360.35 139.65,449.806 250,449.806 360.35,449.806 449.806,360.35 449.806,250"
           style="fill:#e6a630;fill-opacity:1;fill-rule:nonzero;stroke:none"
           id="path71894"
           inkscape:connector-curvature="0" /><path
           d="M 371.966,229.714 H 180.067 c -7.321,0 -13.255,5.934 -13.255,13.256 v 110.308 c 0,7.321 5.934,13.256 13.255,13.256 h 191.899 c 7.32,0 13.256,-5.935 13.256,-13.256 V 242.97 c 0,-7.322 -5.936,-13.256 -13.256,-13.256"
           style="fill:#f3efd7;fill-opacity:1;fill-rule:nonzero;stroke:none"
           id="path71896"
           inkscape:connector-curvature="0" /><path
           d="m 180.067,364.006 c -5.916,0 -10.728,-4.813 -10.728,-10.728 V 242.97 c 0,-5.915 4.812,-10.728 10.728,-10.728 h 191.899 c 5.915,0 10.727,4.813 10.727,10.728 v 110.308 c 0,5.915 -4.812,10.728 -10.727,10.728 z M 371.966,227.187 H 180.067 c -8.703,0 -15.784,7.08 -15.784,15.783 v 110.308 c 0,8.703 7.081,15.784 15.784,15.784 h 191.899 c 8.703,0 15.783,-7.081 15.783,-15.784 V 242.97 c 0,-8.703 -7.08,-15.783 -15.783,-15.783"
           style="fill:#000000;fill-opacity:1;fill-rule:nonzero;stroke:none"
           id="path71898"
           inkscape:connector-curvature="0" /><path
           d="m 385.222,256.074 h -218.41 v 84.1 h 218.41 z"
           style="fill:#7e8aa2;fill-opacity:1;fill-rule:nonzero;stroke:none"
           id="path71900"
           inkscape:connector-curvature="0" /><path
           d="m 385.222,256.074 h -23.833 v 84.1 h 23.833 z"
           style="fill:#697387;fill-opacity:1;fill-rule:nonzero;stroke:none"
           id="path71902"
           inkscape:connector-curvature="0" /><path
           d="m 169.339,258.602 h 213.354 v 79.044 H 169.339 Z m 218.41,-5.056 H 164.283 v 89.156 h 223.466 z"
           style="fill:#000000;fill-opacity:1;fill-rule:nonzero;stroke:none"
           id="path71904"
           inkscape:connector-curvature="0" /><g
           id="g71906"><g
             id="g71908" /><g
             id="g71918"><g
               clip-path="url(#clipPath71912)"
               id="g71916"
               style="opacity:0.30000299"><path
                 d="m 336.912,293.068 c 0,-33.632 -27.264,-60.896 -60.895,-60.896 -33.633,0 -60.897,27.264 -60.897,60.896 0,33.632 27.264,60.896 60.897,60.896 33.631,0 60.895,-27.264 60.895,-60.896"
                 style="fill:#263248;fill-opacity:1;fill-rule:nonzero;stroke:none"
                 id="path71914"
                 inkscape:connector-curvature="0" /></g></g></g><path
           d="m 334.385,298.124 c 0,-32.236 -26.133,-58.368 -58.368,-58.368 -32.237,0 -58.369,26.132 -58.369,58.368 0,32.235 26.132,58.368 58.369,58.368 32.235,0 58.368,-26.133 58.368,-58.368"
           style="fill:#263248;fill-opacity:1;fill-rule:nonzero;stroke:none"
           id="path71920"
           inkscape:connector-curvature="0" /><path
           d="m 276.017,353.964 c -30.791,0 -55.841,-25.05 -55.841,-55.84 0,-30.79 25.05,-55.84 55.841,-55.84 30.79,0 55.839,25.05 55.839,55.84 0,30.79 -25.049,55.84 -55.839,55.84 m 0,-116.736 c -33.579,0 -60.897,27.318 -60.897,60.896 0,33.578 27.318,60.896 60.897,60.896 33.577,0 60.895,-27.318 60.895,-60.896 0,-33.578 -27.318,-60.896 -60.895,-60.896"
           style="fill:#000000;fill-opacity:1;fill-rule:nonzero;stroke:none"
           id="path71922"
           inkscape:connector-curvature="0" /><path
           d="m 315.367,298.124 c 0,-21.733 -17.618,-39.351 -39.35,-39.351 -21.734,0 -39.351,17.618 -39.351,39.351 0,21.732 17.617,39.35 39.351,39.35 21.732,0 39.35,-17.618 39.35,-39.35"
           style="fill:#29abe2;fill-opacity:1;fill-rule:nonzero;stroke:none"
           id="path71924"
           inkscape:connector-curvature="0" /><path
           d="m 276.017,334.946 c -20.305,0 -36.823,-16.518 -36.823,-36.822 0,-20.304 16.518,-36.823 36.823,-36.823 20.303,0 36.822,16.519 36.822,36.823 0,20.304 -16.519,36.822 -36.822,36.822 m 0,-78.7 c -23.092,0 -41.879,18.786 -41.879,41.878 0,23.091 18.787,41.878 41.879,41.878 23.091,0 41.878,-18.787 41.878,-41.878 0,-23.092 -18.787,-41.878 -41.878,-41.878"
           style="fill:#000000;fill-opacity:1;fill-rule:nonzero;stroke:none"
           id="path71926"
           inkscape:connector-curvature="0" /><path
           d="m 295.193,315.069 c 0,-4.852 -3.934,-8.786 -8.787,-8.786 -4.852,0 -8.786,3.934 -8.786,8.786 0,4.853 3.934,8.787 8.786,8.787 4.853,0 8.787,-3.934 8.787,-8.787"
           style="fill:#ffffff;fill-opacity:1;fill-rule:nonzero;stroke:none"
           id="path71928"
           inkscape:connector-curvature="0" /><path
           d="m 303.894,293.73 c 0,-3.264 -2.647,-5.91 -5.912,-5.91 -3.263,0 -5.91,2.646 -5.91,5.91 0,3.265 2.647,5.911 5.91,5.911 3.265,0 5.912,-2.646 5.912,-5.911"
           style="fill:#ffffff;fill-opacity:1;fill-rule:nonzero;stroke:none"
           id="path71930"
           inkscape:connector-curvature="0" /><path
           d="m 370.281,315.069 h -20.957 c -2.011,0 -3.642,1.631 -3.642,3.643 v 7.149 c 0,2.013 1.631,3.643 3.642,3.643 h 20.957 c 2.012,0 3.643,-1.63 3.643,-3.643 v -7.149 c 0,-2.012 -1.631,-3.643 -3.643,-3.643"
           style="fill:#ffffff;fill-opacity:1;fill-rule:nonzero;stroke:none"
           id="path71932"
           inkscape:connector-curvature="0" /><path
           d="m 349.325,326.976 c -0.615,0 -1.116,-0.5 -1.116,-1.115 v -7.149 c 0,-0.614 0.501,-1.114 1.116,-1.114 h 20.956 c 0.615,0 1.115,0.5 1.115,1.114 v 7.149 c 0,0.615 -0.5,1.115 -1.115,1.115 z m 20.956,-14.434 h -20.956 c -3.403,0 -6.172,2.768 -6.172,6.17 v 7.149 c 0,3.403 2.769,6.171 6.172,6.171 h 20.956 c 3.403,0 6.171,-2.768 6.171,-6.171 v -7.149 c 0,-3.402 -2.768,-6.17 -6.171,-6.17"
           style="fill:#000000;fill-opacity:1;fill-rule:nonzero;stroke:none"
           id="path71934"
           inkscape:connector-curvature="0" /><path
           d="m 224.552,366.534 h -35.147 v 6.519 c 0,2.985 2.421,5.405 5.407,5.405 h 24.334 c 2.986,0 5.406,-2.42 5.406,-5.405 z"
           style="fill:#7e8aa2;fill-opacity:1;fill-rule:nonzero;stroke:none"
           id="path71936"
           inkscape:connector-curvature="0" /><path
           d="m 191.934,369.062 h 30.09 v 3.991 c 0,1.587 -1.291,2.878 -2.878,2.878 h -24.334 c -1.587,0 -2.878,-1.291 -2.878,-2.878 z m 35.146,-5.056 h -40.203 v 9.047 c 0,4.374 3.56,7.933 7.935,7.933 h 24.334 c 4.375,0 7.934,-3.559 7.934,-7.933 z"
           style="fill:#000000;fill-opacity:1;fill-rule:nonzero;stroke:none"
           id="path71938"
           inkscape:connector-curvature="0" /><path
           d="m 306.387,366.534 h -60.741 l 4.613,20.731 c 1.015,4.56 5.06,7.803 9.731,7.803 h 32.052 c 4.672,0 8.717,-3.243 9.731,-7.803 z"
           style="fill:#7e8aa2;fill-opacity:1;fill-rule:nonzero;stroke:none"
           id="path71940"
           inkscape:connector-curvature="0" /><path
           d="m 248.798,369.062 h 54.437 l -3.929,17.654 c -0.763,3.429 -3.75,5.825 -7.264,5.825 H 259.99 c -3.513,0 -6.501,-2.396 -7.263,-5.825 z m 60.741,-5.056 h -67.046 l 5.299,23.808 c 1.281,5.76 6.298,9.782 12.198,9.782 h 32.052 c 5.9,0 10.916,-4.022 12.199,-9.782 z"
           style="fill:#000000;fill-opacity:1;fill-rule:nonzero;stroke:none"
           id="path71942"
           inkscape:connector-curvature="0" /><path
           d="m 284.635,376.24 h -17.238 c -2.518,0 -4.561,2.042 -4.561,4.561 0,2.519 2.043,4.561 4.561,4.561 h 17.238 c 2.519,0 4.561,-2.042 4.561,-4.561 0,-2.519 -2.042,-4.561 -4.561,-4.561"
           style="fill:#ffffff;fill-opacity:1;fill-rule:nonzero;stroke:none"
           id="path71944"
           inkscape:connector-curvature="0" /><path
           d="m 267.397,382.834 c -1.121,0 -2.033,-0.912 -2.033,-2.033 0,-1.121 0.912,-2.033 2.033,-2.033 h 17.238 c 1.121,0 2.033,0.912 2.033,2.033 0,1.121 -0.912,2.033 -2.033,2.033 z m 17.238,-9.122 h -17.238 c -3.908,0 -7.088,3.18 -7.088,7.089 0,3.909 3.18,7.089 7.088,7.089 h 17.238 c 3.909,0 7.089,-3.18 7.089,-7.089 0,-3.909 -3.18,-7.089 -7.089,-7.089"
           style="fill:#000000;fill-opacity:1;fill-rule:nonzero;stroke:none"
           id="path71946"
           inkscape:connector-curvature="0" /><path
           d="m 355.123,366.534 h -25.786 v 6.519 c 0,2.985 2.42,5.405 5.405,5.405 h 14.975 c 2.985,0 5.406,-2.42 5.406,-5.405 z"
           style="fill:#7e8aa2;fill-opacity:1;fill-rule:nonzero;stroke:none"
           id="path71948"
           inkscape:connector-curvature="0" /><path
           d="m 331.864,369.062 h 20.731 v 3.991 c 0,1.587 -1.291,2.878 -2.878,2.878 h -14.975 c -1.587,0 -2.878,-1.291 -2.878,-2.878 z m 25.786,-5.056 h -30.841 v 9.047 c 0,4.374 3.558,7.933 7.933,7.933 h 14.975 c 4.375,0 7.933,-3.559 7.933,-7.933 z"
           style="fill:#000000;fill-opacity:1;fill-rule:nonzero;stroke:none"
           id="path71950"
           inkscape:connector-curvature="0" /><g
           id="g71952"><g
             id="g71954" /><g
             id="g71964"><g
               clip-path="url(#clipPath71958)"
               id="g71962"
               style="opacity:0.30000299"><path
                 d="m 117.493,216.313 14.263,72.901 c 1.203,6.152 3.411,12.064 6.535,17.498 l 37.347,64.985 c 1.612,2.804 4.599,4.533 7.834,4.533 h 40.781 c 4.687,0 8.487,-3.8 8.487,-8.487 0,-4.688 -3.8,-8.488 -8.487,-8.488 h -28.374 c -2.09,0 -4.046,-1.033 -5.224,-2.76 l -8.592,-12.603 c -1.375,-2.016 -0.215,-4.778 2.186,-5.209 l 25.043,-4.495 c 3.03,-0.543 5.776,-2.125 7.768,-4.472 l 14.669,-17.288 c 3.506,-4.133 1.786,-10.497 -3.325,-12.301 -2.809,-0.991 -5.939,-0.281 -8.046,1.826 l -12.651,12.651 c -2.29,2.291 -5.341,3.664 -8.574,3.859 l -20.673,1.253 c -2.172,0.132 -4.108,-1.36 -4.535,-3.493 -0.539,-2.696 1.523,-5.211 4.272,-5.211 h 14.865 c 3.674,0 7.203,-1.432 9.837,-3.993 l 21.108,-20.522 c 3.575,-3.476 3.034,-9.362 -1.114,-12.127 -3.105,-2.07 -7.24,-1.661 -9.879,0.978 l -13.663,13.663 c -2.646,2.647 -6.236,4.134 -9.978,4.134 h -16.336 c -1.565,0 -2.834,-1.27 -2.834,-2.835 0,-1.439 1.079,-2.65 2.509,-2.815 l 16.966,-1.958 c 2.396,-0.276 4.572,-1.526 6.02,-3.456 l 8.948,-11.93 c 2.491,-3.321 1.249,-8.096 -2.546,-9.783 -2.489,-1.106 -5.404,-0.533 -7.288,1.433 l -11.208,11.689 c -2.245,0 -4.065,-1.82 -4.065,-4.065 v -53.112 z"
                 style="fill:#263248;fill-opacity:1;fill-rule:nonzero;stroke:none"
                 id="path71960"
                 inkscape:connector-curvature="0" /></g></g></g><path
           d="m 116.987,222.38 14.263,72.902 c 1.204,6.151 3.412,12.063 6.535,17.497 l 37.347,64.985 c 1.612,2.804 4.6,4.533 7.834,4.533 h 40.782 c 4.687,0 8.486,-3.8 8.486,-8.487 0,-4.688 -3.799,-8.488 -8.486,-8.488 h -28.374 c -2.091,0 -4.047,-1.033 -5.225,-2.76 l -8.592,-12.603 c -1.374,-2.016 -0.215,-4.778 2.186,-5.209 l 25.043,-4.495 c 3.03,-0.544 5.777,-2.125 7.769,-4.472 l 14.668,-17.288 c 3.506,-4.133 1.786,-10.496 -3.325,-12.301 -2.809,-0.991 -5.939,-0.281 -8.045,1.826 l -12.651,12.651 c -2.291,2.29 -5.341,3.663 -8.575,3.859 l -20.672,1.253 c -2.173,0.132 -4.109,-1.36 -4.536,-3.493 -0.539,-2.696 1.523,-5.211 4.272,-5.211 h 14.866 c 3.673,0 7.202,-1.433 9.837,-3.994 l 21.107,-20.522 c 3.575,-3.475 3.034,-9.361 -1.114,-12.126 -3.105,-2.07 -7.24,-1.661 -9.878,0.978 l -13.664,13.663 c -2.646,2.647 -6.236,4.133 -9.978,4.133 h -16.336 c -1.565,0 -2.834,-1.269 -2.834,-2.834 0,-1.439 1.079,-2.65 2.51,-2.815 l 16.965,-1.958 c 2.396,-0.276 4.573,-1.526 6.02,-3.456 l 8.948,-11.93 c 2.491,-3.322 1.249,-8.096 -2.545,-9.782 -2.489,-1.107 -5.404,-0.534 -7.289,1.432 l -11.208,11.689 c -2.245,0 -4.065,-1.82 -4.065,-4.065 V 222.38 Z"
           style="fill:#fcc096;fill-opacity:1;fill-rule:nonzero;stroke:none"
           id="path71966"
           inkscape:connector-curvature="0" /><path
           d="m 232.415,310.403 c -0.809,-1.881 -2.366,-3.448 -4.52,-4.207 -0.839,-0.293 -1.709,-0.445 -2.568,-0.445 -2.023,0 -3.994,0.789 -5.471,2.266 l -12.649,12.649 c -2.296,2.295 -5.35,3.671 -8.575,3.863 l -20.678,1.254 c -2.175,0.131 -4.106,-1.355 -4.531,-3.489 -0.06,-0.293 -0.09,-0.586 -0.09,-0.87 0,-2.345 1.911,-4.347 4.357,-4.347 h 14.865 c 3.68,0 7.209,-1.426 9.838,-3.994 l 1.224,-1.194 19.889,-19.323 c 2.569,-2.508 3.014,-6.259 1.507,-9.191 -0.586,-1.143 -1.466,-2.165 -2.629,-2.943 -1.324,-0.88 -2.842,-1.315 -4.338,-1.315 -2.022,0 -4.025,0.779 -5.541,2.296 l -13.661,13.661 c -2.649,2.649 -6.239,4.135 -9.98,4.135 h -16.33 c -1.568,0 -2.832,-1.264 -2.832,-2.831 0,-0.718 0.263,-1.385 0.718,-1.881 0.445,-0.505 1.072,-0.859 1.79,-0.94 l 16.957,-1.952 c 2.396,-0.273 4.581,-1.527 6.027,-3.458 l 1.375,-1.83 7.574,-10.102 c 1.537,-2.042 1.648,-4.641 0.627,-6.734 -0.638,-1.294 -1.719,-2.397 -3.175,-3.043 -0.84,-0.375 -1.74,-0.557 -2.619,-0.557 -1.729,0 -3.418,0.688 -4.672,1.992 L 183.1,279.552 c -1.122,0 -2.133,-0.455 -2.871,-1.193 -0.739,-0.738 -1.194,-1.75 -1.194,-2.872 v -53.106 h -54.522 l 11.79,60.265 c 1.204,6.148 3.418,12.063 6.543,17.494 l 37.342,64.987 c 1.608,2.801 4.601,4.53 7.836,4.53 h 40.781 c 0.748,0 1.487,-0.101 2.174,-0.283 -0.344,-0.566 -0.758,-1.092 -1.234,-1.567 -1.537,-1.537 -3.66,-2.488 -5.996,-2.488 h -28.373 c -2.093,0 -4.045,-1.031 -5.228,-2.76 l -8.595,-12.6 c -1.375,-2.012 -0.212,-4.782 2.195,-5.207 l 7.067,-1.274 17.969,-3.226 c 3.033,-0.536 5.784,-2.123 7.766,-4.469 l 14.672,-17.291 c 2.032,-2.386 2.305,-5.521 1.193,-8.089"
           style="fill:#d1a388;fill-opacity:1;fill-rule:nonzero;stroke:none"
           id="path71968"
           inkscape:connector-curvature="0" /><path
           d="m 232.415,310.403 c -0.809,-1.881 -2.366,-3.448 -4.52,-4.207 -0.839,-0.293 -1.709,-0.445 -2.568,-0.445 -2.023,0 -3.994,0.789 -5.471,2.266 l -12.649,12.649 c -2.296,2.295 -5.35,3.671 -8.575,3.863 l -20.678,1.254 c -2.175,0.131 -4.106,-1.355 -4.531,-3.489 -0.06,-0.293 -0.09,-0.586 -0.09,-0.87 0,-2.345 1.911,-4.347 4.357,-4.347 h 14.865 c 3.68,0 7.209,-1.426 9.838,-3.994 l 1.224,-1.194 -20.608,1.254 c -2.174,0.131 -4.105,-1.355 -4.53,-3.489 -0.061,-0.293 -0.091,-0.586 -0.091,-0.869 0,-2.346 1.911,-4.348 4.358,-4.348 h 14.864 c 3.681,0 7.21,-1.426 9.839,-3.994 l 17.564,-17.068 c -0.586,-1.143 -1.466,-2.165 -2.629,-2.943 -1.324,-0.88 -2.842,-1.315 -4.338,-1.315 -2.022,0 -4.025,0.779 -5.541,2.296 l -13.661,13.661 c -2.649,2.649 -6.239,4.135 -9.98,4.135 h -16.33 c -1.568,0 -2.832,-1.264 -2.832,-2.831 0,-0.718 0.263,-1.385 0.718,-1.881 0.445,-0.505 1.072,-0.859 1.79,-0.94 l 16.957,-1.952 c 2.396,-0.273 4.581,-1.527 6.027,-3.458 l 1.375,-1.83 c -0.87,0.162 -1.749,0.253 -2.649,0.253 h -16.331 c -1.567,0 -2.831,-1.264 -2.831,-2.832 0,-0.717 0.263,-1.385 0.718,-1.881 0.445,-0.505 1.072,-0.859 1.79,-0.94 l 16.957,-1.951 c 2.397,-0.274 4.581,-1.528 6.027,-3.459 l 4.52,-6.026 c -0.638,-1.294 -1.719,-2.397 -3.175,-3.043 -0.84,-0.375 -1.74,-0.557 -2.619,-0.557 -1.729,0 -3.418,0.688 -4.672,1.992 L 183.1,279.552 c -1.122,0 -2.133,-0.455 -2.871,-1.193 -0.739,-0.738 -1.194,-1.75 -1.194,-2.872 v -53.106 h -54.522 l 11.79,60.265 c 1.204,6.148 3.418,12.063 6.543,17.494 l 37.342,64.987 c 1.608,2.801 4.601,4.53 7.836,4.53 h 40.781 c 0.748,0 1.487,-0.101 2.174,-0.283 -0.344,-0.566 -0.758,-1.092 -1.234,-1.567 -1.537,-1.537 -3.66,-2.488 -5.996,-2.488 h -28.373 c -2.093,0 -4.045,-1.031 -5.228,-2.76 l -8.595,-12.6 c -1.375,-2.012 -0.212,-4.782 2.195,-5.207 l 7.067,-1.274 -4.206,-6.158 c -1.375,-2.012 -0.213,-4.783 2.194,-5.208 l 25.037,-4.499 c 3.033,-0.536 5.784,-2.124 7.765,-4.469 z"
           style="fill:#d19673;fill-opacity:1;fill-rule:nonzero;stroke:none"
           id="path71970"
           inkscape:connector-curvature="0" /><path
           d="m 120.058,224.908 h 56.447 v 50.584 c 0,3.635 2.958,6.592 6.593,6.592 h 1.078 l 11.955,-12.466 c 1.144,-1.194 2.927,-1.544 4.437,-0.873 1.101,0.489 1.907,1.44 2.21,2.606 0.303,1.165 0.062,2.386 -0.66,3.35 l -8.948,11.931 c -1.025,1.368 -2.589,2.264 -4.288,2.461 l -16.965,1.958 c -2.707,0.312 -4.748,2.602 -4.748,5.326 0,2.956 2.406,5.362 5.363,5.362 h 16.335 c 4.445,0 8.623,-1.73 11.766,-4.873 l 13.663,-13.664 c 1.781,-1.78 4.594,-2.059 6.689,-0.662 1.338,0.893 2.191,2.323 2.338,3.926 0.147,1.601 -0.43,3.164 -1.583,4.284 l -21.108,20.523 c -2.175,2.114 -5.042,3.278 -8.075,3.278 h -14.866 c -2.07,0 -4.011,0.919 -5.324,2.52 -1.313,1.601 -1.832,3.684 -1.427,5.715 0.671,3.355 3.759,5.734 7.167,5.521 l 20.673,-1.253 c 3.854,-0.234 7.48,-1.866 10.209,-4.596 l 12.652,-12.651 c 1.41,-1.411 3.536,-1.892 5.416,-1.229 1.64,0.579 2.841,1.874 3.295,3.553 0.454,1.679 0.068,3.403 -1.057,4.728 l -14.668,17.288 c -1.607,1.895 -3.841,3.181 -6.288,3.621 l -25.043,4.494 c -1.974,0.355 -3.616,1.671 -4.393,3.521 -0.776,1.85 -0.565,3.943 0.566,5.601 l 8.592,12.601 c 1.65,2.42 4.383,3.865 7.313,3.865 h 28.373 c 3.286,0 5.96,2.674 5.96,5.96 0,3.285 -2.674,5.959 -5.96,5.959 h -40.781 c -2.322,0 -4.485,-1.251 -5.642,-3.265 L 139.977,311.52 c -2.991,-5.206 -5.093,-10.832 -6.246,-16.725 z m 61.503,-5.055 h -67.644 l 14.853,75.914 c 1.26,6.437 3.555,12.585 6.823,18.272 l 37.348,64.984 c 2.057,3.579 5.898,5.802 10.025,5.802 h 40.781 c 6.074,0 11.015,-4.942 11.015,-11.015 0,-6.074 -4.941,-11.016 -11.015,-11.016 h -28.373 c -1.256,0 -2.428,-0.619 -3.135,-1.657 l -8.593,-12.602 c -0.224,-0.327 -0.146,-0.639 -0.081,-0.796 0.066,-0.156 0.235,-0.431 0.625,-0.501 l 25.043,-4.495 c 3.599,-0.646 6.884,-2.537 9.249,-5.325 l 14.668,-17.287 c 2.185,-2.576 2.964,-6.059 2.082,-9.319 -0.88,-3.26 -3.308,-5.877 -6.492,-7.001 -3.706,-1.309 -7.895,-0.358 -10.674,2.421 l -12.651,12.651 c -1.856,1.856 -4.321,2.966 -6.941,3.124 l -20.673,1.253 c -0.9,0.063 -1.724,-0.575 -1.903,-1.466 -0.147,-0.738 0.174,-1.268 0.379,-1.518 0.205,-0.25 0.661,-0.669 1.414,-0.669 h 14.866 c 4.356,0 8.476,-1.672 11.599,-4.709 l 21.108,-20.523 c 2.254,-2.189 3.381,-5.242 3.094,-8.372 -0.288,-3.13 -1.953,-5.926 -4.569,-7.67 -4.093,-2.729 -9.59,-2.184 -13.067,1.295 l -13.664,13.664 c -2.188,2.187 -5.097,3.391 -8.191,3.391 h -16.335 c -0.169,0 -0.307,-0.137 -0.307,-0.306 0,-0.155 0.117,-0.286 0.271,-0.304 l 16.966,-1.958 c 3.071,-0.355 5.897,-1.976 7.753,-4.449 l 8.948,-11.931 c 1.651,-2.202 2.201,-4.993 1.508,-7.657 -0.693,-2.665 -2.534,-4.835 -5.049,-5.953 -3.454,-1.533 -7.528,-0.732 -10.141,1.994 l -10.222,10.66 c -0.42,-0.275 -0.698,-0.749 -0.698,-1.287 z"
           style="fill:#000000;fill-opacity:1;fill-rule:nonzero;stroke:none"
           id="path71972"
           inkscape:connector-curvature="0" /><path
           d="m 172.47,224.048 h -41.461 c -9.353,0 -16.935,-7.582 -16.935,-16.936 v -85.244 c 0,-9.353 7.582,-16.936 16.935,-16.936 h 41.461 c 9.353,0 16.935,7.583 16.935,16.936 v 85.244 c 0,9.354 -7.582,16.936 -16.935,16.936"
           style="fill:#40627c;fill-opacity:1;fill-rule:nonzero;stroke:none"
           id="path71974"
           inkscape:connector-curvature="0" /><path
           d="m 177.126,224.048 h -15.042 c -6.781,0 -12.279,-5.497 -12.279,-12.278 v -94.559 c 0,-6.781 5.498,-12.279 12.279,-12.279 h 15.042 c 6.782,0 12.279,5.498 12.279,12.279 v 94.559 c 0,6.781 -5.497,12.278 -12.279,12.278"
           style="fill:#314a52;fill-opacity:1;fill-rule:nonzero;stroke:none"
           id="path71976"
           inkscape:connector-curvature="0" /><path
           d="m 131.009,221.521 c -7.944,0 -14.407,-6.463 -14.407,-14.408 v -85.245 c 0,-7.945 6.463,-14.408 14.407,-14.408 h 41.461 c 7.944,0 14.407,6.463 14.407,14.408 v 85.245 c 0,7.945 -6.463,14.408 -14.407,14.408 z M 172.47,102.404 h -41.461 c -10.732,0 -19.463,8.731 -19.463,19.464 v 85.245 c 0,10.732 8.731,19.463 19.463,19.463 h 41.461 c 10.732,0 19.464,-8.731 19.464,-19.463 v -85.245 c 0,-10.733 -8.732,-19.464 -19.464,-19.464"
           style="fill:#000000;fill-opacity:1;fill-rule:nonzero;stroke:none"
           id="path71978"
           inkscape:connector-curvature="0" /><path
           d="m 182.665,218.992 h -61.851 c -3.723,0 -6.74,3.019 -6.74,6.741 v 11.798 c 0,3.723 3.017,6.74 6.74,6.74 h 61.851 c 3.723,0 6.74,-3.017 6.74,-6.74 v -11.798 c 0,-3.722 -3.017,-6.741 -6.74,-6.741"
           style="fill:#d0a825;fill-opacity:1;fill-rule:nonzero;stroke:none"
           id="path71980"
           inkscape:connector-curvature="0" /><path
           d="m 120.814,241.743 c -2.322,0 -4.212,-1.889 -4.212,-4.212 v -11.798 c 0,-2.323 1.89,-4.212 4.212,-4.212 h 61.851 c 2.323,0 4.212,1.889 4.212,4.212 v 11.798 c 0,2.323 -1.889,4.212 -4.212,4.212 z m 61.851,-25.278 h -61.851 c -5.11,0 -9.268,4.158 -9.268,9.268 v 11.798 c 0,5.11 4.158,9.269 9.268,9.269 h 61.851 c 5.11,0 9.269,-4.159 9.269,-9.269 v -11.798 c 0,-5.11 -4.159,-9.268 -9.269,-9.268"
           style="fill:#000000;fill-opacity:1;fill-rule:nonzero;stroke:none"
           id="path71982"
           inkscape:connector-curvature="0" /><path
           d="m 182.327,231.379 c 0,-2.932 -2.376,-5.309 -5.308,-5.309 -2.932,0 -5.309,2.377 -5.309,5.309 0,2.933 2.377,5.309 5.309,5.309 2.932,0 5.308,-2.376 5.308,-5.309"
           style="fill:#40627c;fill-opacity:1;fill-rule:nonzero;stroke:none"
           id="path71984"
           inkscape:connector-curvature="0" /><path
           d="m 177.019,234.16 c -1.534,0 -2.781,-1.248 -2.781,-2.781 0,-1.533 1.247,-2.78 2.781,-2.78 1.533,0 2.78,1.247 2.78,2.78 0,1.533 -1.247,2.781 -2.78,2.781 m 0,-10.617 c -4.321,0 -7.837,3.515 -7.837,7.836 0,4.321 3.516,7.837 7.837,7.837 4.321,0 7.836,-3.516 7.836,-7.837 0,-4.321 -3.515,-7.836 -7.836,-7.836"
           style="fill:#000000;fill-opacity:1;fill-rule:nonzero;stroke:none"
           id="path71986"
           inkscape:connector-curvature="0" /><path
           d="m 225.951,186.295 c 0.715,-0.179 1.594,-0.239 2.803,-0.239 4.452,0 7.2,2.442 7.2,6.549 0,3.692 -2.364,5.895 -6.54,5.895 -1.704,0 -2.858,-0.178 -3.463,-0.356 z m -8.299,18.219 c 2.583,0.476 6.211,0.834 11.322,0.834 5.166,0 8.848,-1.073 11.321,-3.215 2.364,-2.026 3.957,-5.36 3.957,-9.289 0,-3.929 -1.209,-7.264 -3.407,-9.527 -2.858,-2.918 -7.09,-4.227 -12.036,-4.227 -1.099,0 -2.088,0.059 -2.858,0.179 v -14.35 h -8.299 z"
           style="fill:#ffffff;fill-opacity:1;fill-rule:nonzero;stroke:none"
           id="path71988"
           inkscape:connector-curvature="0" /><path
           d="m 257.991,205.05 v -15.421 h 13.795 v 15.421 h 8.354 v -40.131 h -8.354 v 16.791 h -13.795 v -16.791 h -8.408 v 40.131 z"
           style="fill:#ffffff;fill-opacity:1;fill-rule:nonzero;stroke:none"
           id="path71990"
           inkscape:connector-curvature="0" /><path
           d="m 294.595,184.865 c 0,-7.859 3.406,-13.396 9.012,-13.396 5.662,0 8.904,5.835 8.904,13.635 0,7.205 -3.189,13.396 -8.958,13.396 -5.661,0 -8.958,-5.835 -8.958,-13.635 m 26.764,0.536 c 0,-13.158 -7.365,-21.136 -18.191,-21.136 -10.991,0 -17.422,8.99 -17.422,20.423 0,12.027 7.09,21.016 18.026,21.016 11.376,0 17.587,-9.228 17.587,-20.303"
           style="fill:#ffffff;fill-opacity:1;fill-rule:nonzero;stroke:none"
           id="path71992"
           inkscape:connector-curvature="0" /><path
           d="m 332.461,197.429 h -9.947 v 7.621 h 28.468 v -7.621 h -10.113 v -32.51 h -8.408 z"
           style="fill:#ffffff;fill-opacity:1;fill-rule:nonzero;stroke:none"
           id="path71994"
           inkscape:connector-curvature="0" /><path
           d="m 360.985,184.865 c 0,-7.859 3.407,-13.396 9.013,-13.396 5.661,0 8.903,5.835 8.903,13.635 0,7.205 -3.187,13.396 -8.958,13.396 -5.661,0 -8.958,-5.835 -8.958,-13.635 m 26.764,0.536 c 0,-13.158 -7.364,-21.136 -18.19,-21.136 -10.993,0 -17.422,8.99 -17.422,20.423 0,12.027 7.09,21.016 18.025,21.016 11.377,0 17.587,-9.228 17.587,-20.303"
           style="fill:#ffffff;fill-opacity:1;fill-rule:nonzero;stroke:none"
           id="path71996"
           inkscape:connector-curvature="0" /><path
           d="m 221.324,134.585 c 0.514,-0.094 1.262,-0.117 2.056,-0.117 4.348,0 6.707,2.43 6.707,6.684 0.024,3.716 -2.079,6.076 -6.379,6.076 -1.052,0 -1.847,-0.093 -2.384,-0.21 z m -2.033,13.929 c 1.238,0.186 2.71,0.326 4.323,0.326 2.921,0 5.001,-0.678 6.38,-1.962 1.402,-1.286 2.22,-3.108 2.22,-5.656 0,-2.571 -0.795,-4.674 -2.267,-6.123 -1.472,-1.472 -3.902,-2.267 -6.964,-2.267 -1.449,0 -2.664,0.07 -3.692,0.188 z"
           style="fill:#ffffff;fill-opacity:1;fill-rule:nonzero;stroke:none"
           id="path71998"
           inkscape:connector-curvature="0" /><path
           d="m 243.012,140.357 h -6.122 v -5.679 h 6.823 v -1.705 h -8.857 v 15.751 h 8.507 v -1.706 h -6.473 v -4.978 h 6.122 z"
           style="fill:#ffffff;fill-opacity:1;fill-rule:nonzero;stroke:none"
           id="path72000"
           inkscape:connector-curvature="0" /><path
           d="m 246.074,135.45 c 0.912,-0.561 2.244,-1.029 3.646,-1.029 2.08,0 3.296,1.099 3.296,2.688 0,1.472 -0.842,2.314 -2.969,3.132 -2.57,0.911 -4.159,2.243 -4.159,4.463 0,2.454 2.033,4.276 5.094,4.276 1.613,0 2.782,-0.374 3.483,-0.77 l -0.562,-1.66 c -0.514,0.281 -1.565,0.749 -2.991,0.749 -2.15,0 -2.968,-1.286 -2.968,-2.361 0,-1.472 0.958,-2.197 3.131,-3.039 2.664,-1.028 4.02,-2.313 4.02,-4.628 0,-2.429 -1.799,-4.532 -5.515,-4.532 -1.519,0 -3.179,0.444 -4.019,1.004 z"
           style="fill:#ffffff;fill-opacity:1;fill-rule:nonzero;stroke:none"
           id="path72002"
           inkscape:connector-curvature="0" /><path
           d="m 259.911,132.973 h -2.033 v 15.751 h 2.033 z"
           style="fill:#ffffff;fill-opacity:1;fill-rule:nonzero;stroke:none"
           id="path72004"
           inkscape:connector-curvature="0" /><path
           d="m 275.453,133.674 c -0.912,-0.328 -2.712,-0.865 -4.838,-0.865 -2.384,0 -4.346,0.608 -5.889,2.08 -1.356,1.308 -2.197,3.412 -2.197,5.866 0.023,4.697 3.248,8.133 8.53,8.133 1.823,0 3.248,-0.398 3.926,-0.726 l -0.491,-1.659 c -0.841,0.375 -1.892,0.679 -3.482,0.679 -3.832,0 -6.333,-2.384 -6.333,-6.334 0,-3.996 2.407,-6.357 6.076,-6.357 1.332,0 2.244,0.187 2.711,0.421 v 4.697 h -3.201 v 1.636 h 5.188 z"
           style="fill:#ffffff;fill-opacity:1;fill-rule:nonzero;stroke:none"
           id="path72006"
           inkscape:connector-curvature="0" /><path
           d="m 278.562,132.973 v 15.751 h 2.22 l 5.047,-7.969 c 1.169,-1.847 2.08,-3.505 2.829,-5.119 l 0.047,0.023 c -0.188,2.105 -0.234,4.021 -0.234,6.475 v 6.59 h 1.916 v -15.751 h -2.057 l -5.001,7.992 c -1.099,1.753 -2.15,3.552 -2.945,5.259 l -0.07,-0.024 c 0.118,-1.987 0.165,-3.88 0.165,-6.498 v -6.729 z"
           style="fill:#ffffff;fill-opacity:1;fill-rule:nonzero;stroke:none"
           id="path72008"
           inkscape:connector-curvature="0" /><path
           d="m 307.052,140.357 h -6.124 v -5.679 h 6.824 v -1.705 h -8.856 v 15.751 h 8.505 v -1.706 h -6.473 v -4.978 h 6.124 z"
           style="fill:#ffffff;fill-opacity:1;fill-rule:nonzero;stroke:none"
           id="path72010"
           inkscape:connector-curvature="0" /><path
           d="m 310.395,148.724 h 2.032 v -14.046 h 6.731 v -1.705 h -8.763 z"
           style="fill:#ffffff;fill-opacity:1;fill-rule:nonzero;stroke:none"
           id="path72012"
           inkscape:connector-curvature="0" /><path
           d="m 329.582,140.357 h -6.124 v -5.679 h 6.824 v -1.705 h -8.856 v 15.751 h 8.507 v -1.706 h -6.475 v -4.978 h 6.124 z"
           style="fill:#ffffff;fill-opacity:1;fill-rule:nonzero;stroke:none"
           id="path72014"
           inkscape:connector-curvature="0" /><path
           d="m 346.198,139.89 c -0.117,2.197 -0.257,4.838 -0.233,6.8 h -0.07 c -0.539,-1.845 -1.192,-3.809 -1.988,-5.982 l -2.78,-7.643 h -1.543 l -2.547,7.502 c -0.749,2.221 -1.378,4.254 -1.823,6.123 h -0.046 c -0.047,-1.962 -0.164,-4.603 -0.305,-6.964 l -0.421,-6.753 h -1.939 l 1.099,15.751 h 2.594 l 2.688,-7.62 c 0.654,-1.939 1.191,-3.668 1.589,-5.304 h 0.07 c 0.396,1.59 0.957,3.319 1.659,5.304 l 2.804,7.62 h 2.595 l 0.981,-15.751 h -1.986 z"
           style="fill:#ffffff;fill-opacity:1;fill-rule:nonzero;stroke:none"
           id="path72016"
           inkscape:connector-curvature="0" /><path
           d="m 359.87,140.357 h -6.122 v -5.679 h 6.825 v -1.705 h -8.859 v 15.751 h 8.508 v -1.706 h -6.474 v -4.978 h 6.122 z"
           style="fill:#ffffff;fill-opacity:1;fill-rule:nonzero;stroke:none"
           id="path72018"
           inkscape:connector-curvature="0" /><path
           d="m 363.214,132.973 v 15.751 h 2.22 l 5.048,-7.969 c 1.168,-1.847 2.08,-3.505 2.827,-5.119 l 0.047,0.023 c -0.186,2.105 -0.233,4.021 -0.233,6.475 v 6.59 h 1.916 v -15.751 h -2.057 l -5.001,7.992 c -1.098,1.753 -2.149,3.552 -2.944,5.259 l -0.07,-0.024 c 0.116,-1.987 0.164,-3.88 0.164,-6.498 v -6.729 z"
           style="fill:#ffffff;fill-opacity:1;fill-rule:nonzero;stroke:none"
           id="path72020"
           inkscape:connector-curvature="0" /><path
           d="m 381.584,146.994 h -4.791 v 1.73 h 11.661 v -1.73 h -4.813 v -14.021 h -2.057 z"
           style="fill:#ffffff;fill-opacity:1;fill-rule:nonzero;stroke:none"
           id="path72022"
           inkscape:connector-curvature="0" /><path
           d="M 387.749,112.516 H 217.652 v 7.383 h 170.097 z"
           style="fill:#ffffff;fill-opacity:1;fill-rule:nonzero;stroke:none"
           id="path72024"
           inkscape:connector-curvature="0" /></g></g></g></svg>